<?xml version="1.0" standalone="no"?><!DOCTYPE svg PUBLIC "-//W3C//DTD SVG 1.1//EN" "http://www.w3.org/Graphics/SVG/1.1/DTD/svg11.dtd"><svg t="1492435560947" class="icon" style="" viewBox="0 0 1024 1024" version="1.1" xmlns="http://www.w3.org/2000/svg" p-id="1391" xmlns:xlink="http://www.w3.org/1999/xlink" width="32" height="32"><defs><style type="text/css"></style></defs><path d="M891.215 343.808c-20.682-48.897-50.288-92.81-87.996-130.517s-81.62-67.313-130.517-87.995c-50.628-21.413-104.404-32.272-159.831-32.272s-109.205 10.858-159.833 32.272c-48.897 20.681-92.81 50.287-130.517 87.995-37.707 37.707-67.313 81.62-87.995 130.517-21.413 50.628-32.272 104.404-32.272 159.833s10.858 109.205 32.272 159.833c20.681 48.897 50.287 92.81 87.995 130.517s81.62 67.313 130.517 87.996c50.628 21.413 104.404 32.272 159.833 32.272s109.205-10.857 159.833-32.272c48.897-20.682 92.809-50.288 130.517-87.996 37.707-37.707 67.313-81.62 87.996-130.517 21.413-50.628 32.272-104.403 32.272-159.833s-10.858-109.204-32.272-159.833zM906.218 503.641c0 5.153-0.1 10.292-0.297 15.413l-89.248-64.842 43.806-134.818c5.371 10.13 10.333 20.505 14.831 31.141 20.508 48.487 30.908 100 30.908 153.107zM791.009 225.502c22.34 22.341 41.702 46.958 57.918 73.564l-48.852 150.35-130.733 11.61-147.839-107.41v-125.857l128.079-93.054c5.5 2.042 10.967 4.203 16.393 6.499 46.838 19.81 88.906 48.173 125.033 84.3zM601.783 642.333h-177.826l-54.953-169.124 143.865-104.524 143.865 104.524-54.951 169.124zM629.589 127.885l-116.719 84.801-116.718-84.801c37.594-11.685 76.703-17.591 116.718-17.591s79.124 5.906 116.719 17.591zM234.732 225.502c36.128-36.127 78.194-64.491 125.033-84.301 5.426-2.295 10.894-4.457 16.393-6.499l128.078 93.054v125.857l-147.838 107.411-130.733-11.61-48.852-150.35c16.217-26.606 35.578-51.223 57.918-73.564zM150.431 350.534c4.498-10.635 9.46-21.010 14.831-31.141l43.806 134.818-89.248 64.842c-0.196-5.122-0.297-10.26-0.297-15.414 0-53.105 10.399-104.618 30.908-153.106zM150.431 656.746c-15.865-37.509-25.674-76.828-29.306-117.295l100.551-73.055 130.732 11.61 55.927 172.127-66.153 123.458h-115.385c-32.359-34.247-58.032-73.498-76.366-116.845zM244.15 790.86h96.928l25.328 77.951c-2.22-0.892-4.435-1.797-6.642-2.73-42.831-18.116-81.657-43.404-115.614-75.22zM387.043 876.444l-30.343-93.385 66.153-123.457h180.035l66.151 123.457-30.342 93.385c-40.371 13.642-82.57 20.544-125.828 20.544-43.257 0.001-85.457-6.901-125.827-20.543zM665.977 866.081c-2.208 0.934-4.422 1.839-6.642 2.73l25.328-77.951h96.929c-33.958 31.815-72.783 57.104-115.614 75.22zM875.31 656.746c-18.334 43.347-44.007 82.598-76.366 116.845h-115.387l-66.153-123.457 55.927-172.128 130.732-11.61 100.551 73.055c-3.63 40.466-13.439 79.785-29.303 117.295z" p-id="1392"></path></svg>