<?xml version="1.0" encoding="UTF-8" standalone="no"?>
<svg width="18px" height="24px" viewBox="0 0 18 24" version="1.1" xmlns="http://www.w3.org/2000/svg" xmlns:xlink="http://www.w3.org/1999/xlink" xmlns:sketch="http://www.bohemiancoding.com/sketch/ns">
    <!-- Generator: Sketch 3.4.1 (15681) - http://www.bohemiancoding.com/sketch -->
    <title>Slice 1</title>
    <desc>Created with Sketch.</desc>
    <defs></defs>
    <g id="Page-1" stroke="none" stroke-width="1" fill="none" fill-rule="evenodd" sketch:type="MSPage">
        <path d="M17.1472523,8.48180919 L16.6608758,8.24355612 L16.0285864,8.24355612 L15.1531087,8.38650796 L14.7153699,8.33885735 L13.596704,8.19590551 L12.5753134,8.00530306 L12.3321252,7.71939938 L12.4294005,7.57644754 L12.1375746,7.00464017 L11.797111,6.3851822 L11.3593722,5.52747116 L11.0675463,5.05096502 L10.7757204,4.66976012 L10.5811699,4.47915766 L10.3866193,4.38385644 L10.3379816,4.28855521 L10.5325322,4.2409046 L10.5811699,4.14560337 L10.6298075,4.00265153 L10.7270828,3.71674785 L10.7757204,3.52614539 L10.8729957,3.33554294 L11.0189087,3.28789233 L11.116184,3.24024171 L11.1648216,3.14494049 L11.1648216,2.71608497 L11.116184,2.57313313 L11.116184,2.43018129 L11.1648216,2.28722944 L11.2620969,2.1442776 L11.2134593,1.33421718 L11.3593722,1.14361472 L11.4080099,0.905361655 L11.3593722,0.762409815 L11.2620969,0.714759201 L11.2134593,0.762409815 L11.0189087,0.619457975 L11.0189087,0.333554294 L10.7270828,0.381204907 L10.5325322,0.285903681 L10.3866193,0.238253067 L10.143431,0.0953012269 L9.36522866,0.14295184 L8.63566395,0.238253067 L7.95473688,0.905361655 L7.71154865,1.85837392 L7.85746159,2.38253067 L7.76018629,2.43018129 L7.76018629,2.57313313 L7.95473688,2.81138619 L8.00337453,3.1925911 L8.24656277,3.24024171 L8.39247571,3.43084417 L8.29520042,3.85969969 L8.05201218,3.95500091 L7.662911,4.05030214 L6.69015805,4.38385644 L6.05786863,4.47915766 L5.6201298,4.57445889 L4.93920274,4.76506134 L4.89056509,4.90801318 L4.45282626,5.05096502 L4.01508743,5.3368687 L3.62598625,5.62277239 L3.43143566,6.09927852 L3.33416037,6.86168833 L3.18824743,7.95765244 L3.09097213,9.10126717 L2.70187095,9.24421901 L2.6532333,9.29186962 L2.31276977,9.62542391 L2.26413212,9.67307453 L2.02094389,9.53012269 L1.8263933,9.48247207 L1.77775565,9.62542391 L1.729118,9.81602637 L1.97230624,10.1972313 L2.11821918,10.2925325 L2.70187095,10.5307856 L2.79914625,10.4354843 L2.99369684,10.5307856 L3.13960978,10.4354843 L3.48007331,10.1972313 L3.82053684,9.67307453 L4.06372508,8.62476103 L4.35555097,7.52879692 L4.64737685,6.62343527 L5.03647803,6.57578465 L5.23102862,6.57578465 L5.42557921,6.95698956 L5.7174051,6.86168833 L6.15514393,6.81403772 L6.34969452,6.81403772 L6.39833216,8.1482549 L6.30105687,9.62542391 L6.15514393,10.3401831 L6.30105687,10.6260868 L6.20378157,10.7690386 L6.15514393,11.0549423 L6.15514393,11.1978942 L6.10650628,11.2931954 L6.00923098,11.4361472 L5.81468039,11.7697015 L5.81468039,12.3415089 L5.86331804,12.9133162 L6.05786863,13.437473 L6.10650628,13.6280754 L6.05786863,14.1998828 L5.86331804,14.7240396 L5.66876745,15.1528951 L5.42557921,15.7247024 L5.18239098,16.153558 L5.18239098,16.2488592 L5.52285451,16.4871122 L5.27966627,16.8683172 L5.23102862,16.9159678 L4.98784039,17.011269 L4.79328979,17.011269 L4.55010156,17.1065702 L4.35555097,17.2018714 L4.20963802,17.4401245 L3.96644979,17.4877751 L3.43143566,17.8213294 L2.60459566,18.3931368 L1.8263933,18.9172935 L1.48592976,18.9649441 L1.19410388,18.9649441 L0.561814459,19.107896 L0.318626222,19.2984984 L0.124075631,19.4414503 L0.124075631,19.6320527 L0.172713279,19.8226552 L0.0268003364,19.9179564 L0.124075631,20.1085589 L0.269988574,20.1562095 L0.464539164,20.585065 L0.561814459,21.7286797 L0.513176812,21.9669328 L0.415901517,22.0145834 L0.464539164,22.2051859 L0.610452107,22.2528365 L0.659089754,22.3957883 L0.610452107,22.5387402 L0.659089754,22.681692 L0.853640344,22.6340414 L0.999553287,22.7293426 L1.09682858,22.8722944 L1.29137917,22.9675957 L1.38865447,22.9199451 L1.58320506,22.9199451 L1.77775565,22.8722944 L1.87503094,22.7769932 L1.8263933,22.5863908 L1.8263933,21.9669328 L2.21549448,20.4897638 L2.50732036,20.4421132 L2.41004507,20.2038601 L2.94505919,19.9179564 L4.06372508,19.3937997 L4.89056509,19.107896 L5.03647803,19.0125948 L5.32830392,18.9172935 L5.57149216,18.7266911 L5.66876745,18.6313899 L6.10650628,18.4407874 L6.69015805,18.2025343 L6.98198393,18.0119319 L7.22517217,17.86898 L7.46836041,17.630727 L7.5656357,17.7260282 L7.662911,17.7260282 L7.95473688,17.3924739 L8.19792512,17.011269 L8.48975101,16.5824135 L8.73293925,16.2488592 L8.87885219,15.9629555 L9.02476513,15.7247024 L9.31659102,15.9629555 L9.6084169,16.153558 L10.3379816,16.6777147 L10.7757204,17.011269 L11.0189087,16.8683172 L11.3107346,16.391811 L11.6025604,16.5347629 L11.6998357,16.6777147 L11.797111,17.1542208 L11.6998357,17.3448233 L11.6511981,17.6783776 L11.6998357,17.9642813 L11.797111,18.0595825 L11.7484734,18.2025343 L11.6998357,18.3454862 L11.797111,18.8219923 L12.0889369,20.0132576 L12.3807628,21.3474748 L12.4294005,21.6333785 L12.3807628,21.7286797 L12.4294005,22.1098846 L12.2834875,22.8722944 L12.3321252,23.2534994 L12.623951,23.30115 L12.6725887,23.4917524 L12.9157769,23.4917524 L12.9644146,23.3488006 L13.1103275,23.3488006 L13.1589652,23.4917524 L13.3535158,23.539403 L13.4021534,23.3964512 L13.596704,23.3964512 L15.1044711,23.539403 L15.1531087,23.6823549 L15.3476593,23.7300055 L15.396297,23.539403 L15.4935723,23.539403 L15.7367605,23.4917524 L15.9799487,23.3964512 L16.1258617,23.30115 L16.223137,23.1105475 L16.1258617,22.7769932 L15.8340358,22.5863908 L14.7153699,22.1098846 L14.3749064,21.8716316 L14.0344428,21.6333785 L13.9371675,21.442776 L13.7912546,21.3474748 L13.7426169,20.4897638 L13.6453416,19.2508478 L13.596704,18.488438 L13.4507911,18.2978356 L13.6453416,18.1548837 L13.6939793,18.0119319 L13.6453416,17.3924739 L13.5480664,17.2018714 L13.4507911,17.1065702 L13.4994287,16.6777147 L13.596704,16.2965098 L13.596704,15.9153049 L13.4994287,15.4387988 L13.3048781,15.1052445 L12.9157769,14.7240396 L12.6725887,14.3904853 L12.7212263,14.2475334 L12.7212263,14.1045816 L12.3321252,13.7233767 L10.2407063,12.0556052 L9.94888043,11.7697015 L9.90024279,11.4837978 L9.94888043,11.3884966 L9.94888043,11.2455448 L9.90024279,11.1502435 L10.0461557,10.6737374 L10.2407063,9.86367698 L10.4352569,8.76771287 L10.5811699,8.62476103 L10.7757204,8.5294598 L11.0675463,8.8630141 L11.1648216,8.95831533 L11.6025604,9.24421901 L12.3321252,9.33952023 L15.1044711,9.29186962 L15.250384,9.33952023 L15.6881228,9.48247207 L15.9313111,9.48247207 L16.5636005,9.38717085 L16.6608758,9.38717085 L16.8067887,9.19656839 L17.0013393,9.24421901 L17.1958899,9.10126717 L17.2445276,8.81536349 L17.1958899,8.62476103 L17.1472523,8.48180919 Z" id="player-tool" fill="#3C3C3C" sketch:type="MSShapeGroup"></path>
    </g>
</svg>